<?xml version="1.0" encoding="UTF-8" standalone="no"?>
<!DOCTYPE svg PUBLIC "-//W3C//DTD SVG 1.1//EN"
 "http://www.w3.org/Graphics/SVG/1.1/DTD/svg11.dtd">
<!-- Generated by graphviz version 2.43.0 (0)
 -->
<!-- Title: CardClassifier Pages: 1 -->
<svg width="576pt" height="719pt"
 viewBox="0.00 0.00 576.00 719.36" xmlns="http://www.w3.org/2000/svg" xmlns:xlink="http://www.w3.org/1999/xlink">
<g id="graph0" class="graph" transform="scale(0.47 0.47) rotate(0) translate(4 1525.89)">
<title>CardClassifier</title>
<polygon fill="white" stroke="transparent" points="-4,4 -4,-1525.89 1221,-1525.89 1221,4 -4,4"/>
<!-- Browser -->
<g id="node1" class="node">
<title>Browser</title>
<polygon fill="#e0f7fa" stroke="black" points="325.5,-818.21 242.5,-818.21 242.5,-814.21 238.5,-814.21 238.5,-810.21 242.5,-810.21 242.5,-788.21 238.5,-788.21 238.5,-784.21 242.5,-784.21 242.5,-780.21 325.5,-780.21 325.5,-818.21"/>
<polyline fill="none" stroke="black" points="242.5,-814.21 246.5,-814.21 246.5,-810.21 242.5,-810.21 "/>
<polyline fill="none" stroke="black" points="242.5,-788.21 246.5,-788.21 246.5,-784.21 242.5,-784.21 "/>
<text text-anchor="middle" x="284" y="-803.01" font-family="Times,serif" font-size="14.00">Browser</text>
<text text-anchor="middle" x="284" y="-788.01" font-family="Times,serif" font-size="14.00">(React App)</text>
</g>
<!-- API -->
<g id="node5" class="node">
<title>API</title>
<path fill="#ffecb3" stroke="black" d="M534,-1200.21C534,-1200.21 468,-1200.21 468,-1200.21 462,-1200.21 456,-1194.21 456,-1188.21 456,-1188.21 456,-1174.21 456,-1174.21 456,-1168.21 462,-1162.21 468,-1162.21 468,-1162.21 534,-1162.21 534,-1162.21 540,-1162.21 546,-1168.21 546,-1174.21 546,-1174.21 546,-1188.21 546,-1188.21 546,-1194.21 540,-1200.21 534,-1200.21"/>
<text text-anchor="middle" x="501" y="-1185.01" font-family="Times,serif" font-size="14.00">API Gateway</text>
<text text-anchor="middle" x="501" y="-1170.01" font-family="Times,serif" font-size="14.00">(HTTP API)</text>
</g>
<!-- Browser&#45;&gt;API -->
<g id="edge4" class="edge">
<title>Browser&#45;&gt;API</title>
<path fill="none" stroke="black" d="M284,-818.41C284,-895.88 284,-1181.21 284,-1181.21 284,-1181.21 445.77,-1181.21 445.77,-1181.21"/>
<polygon fill="black" stroke="black" points="445.77,-1184.71 455.77,-1181.21 445.77,-1177.71 445.77,-1184.71"/>
<text text-anchor="middle" x="327.22" y="-1024.3" font-family="Times,serif" font-size="14.00">POST image</text>
</g>
<!-- S3_UI -->
<g id="node2" class="node">
<title>S3_UI</title>
<polygon fill="none" stroke="black" points="112.5,-1444.21 109.5,-1448.21 88.5,-1448.21 85.5,-1444.21 -0.5,-1444.21 -0.5,-1406.21 112.5,-1406.21 112.5,-1444.21"/>
<text text-anchor="middle" x="56" y="-1429.01" font-family="Times,serif" font-size="14.00">S3 Static Website</text>
<text text-anchor="middle" x="56" y="-1414.01" font-family="Times,serif" font-size="14.00">(React App)</text>
</g>
<!-- S3_UI&#45;&gt;Browser -->
<g id="edge1" class="edge">
<title>S3_UI&#45;&gt;Browser</title>
<path fill="none" stroke="black" d="M104,-1405.97C104,-1301.32 104,-805.21 104,-805.21 104,-805.21 232.25,-805.21 232.25,-805.21"/>
<polygon fill="black" stroke="black" points="232.25,-808.71 242.25,-805.21 232.25,-801.71 232.25,-808.71"/>
<text text-anchor="middle" x="138.86" y="-1003.8" font-family="Times,serif" font-size="14.00">loads UI</text>
</g>
<!-- File -->
<g id="node3" class="node">
<title>File</title>
<path fill="none" stroke="black" d="M94,-813.94C94,-815.74 76.97,-817.21 56,-817.21 35.03,-817.21 18,-815.74 18,-813.94 18,-813.94 18,-784.48 18,-784.48 18,-782.68 35.03,-781.21 56,-781.21 76.97,-781.21 94,-782.68 94,-784.48 94,-784.48 94,-813.94 94,-813.94"/>
<path fill="none" stroke="black" d="M94,-813.94C94,-812.13 76.97,-810.66 56,-810.66 35.03,-810.66 18,-812.13 18,-813.94"/>
<text text-anchor="middle" x="56" y="-795.51" font-family="Times,serif" font-size="14.00">Image File</text>
</g>
<!-- File&#45;&gt;Browser -->
<g id="edge2" class="edge">
<title>File&#45;&gt;Browser</title>
<path fill="none" stroke="black" d="M94.16,-793.21C94.16,-793.21 232.23,-793.21 232.23,-793.21"/>
<polygon fill="black" stroke="black" points="232.23,-796.71 242.23,-793.21 232.23,-789.71 232.23,-796.71"/>
<text text-anchor="middle" x="152.12" y="-773.98" font-family="Times,serif" font-size="14.00">select image</text>
</g>
<!-- Camera -->
<g id="node4" class="node">
<title>Camera</title>
<polygon fill="none" stroke="black" points="79.5,-196.21 26.5,-196.21 26.5,-160.21 85.5,-160.21 85.5,-190.21 79.5,-196.21"/>
<polyline fill="none" stroke="black" points="79.5,-196.21 79.5,-190.21 "/>
<polyline fill="none" stroke="black" points="85.5,-190.21 79.5,-190.21 "/>
<text text-anchor="middle" x="56" y="-174.51" font-family="Times,serif" font-size="14.00">Camera</text>
</g>
<!-- Camera&#45;&gt;Browser -->
<g id="edge3" class="edge">
<title>Camera&#45;&gt;Browser</title>
<path fill="none" stroke="black" d="M85.81,-178.21C147.61,-178.21 284,-178.21 284,-178.21 284,-178.21 284,-769.94 284,-769.94"/>
<polygon fill="black" stroke="black" points="280.5,-769.94 284,-779.94 287.5,-769.94 280.5,-769.94"/>
<text text-anchor="middle" x="333.29" y="-422" font-family="Times,serif" font-size="14.00">capture image</text>
</g>
<!-- Lambda -->
<g id="node6" class="node">
<title>Lambda</title>
<path fill="#ffe0b2" stroke="black" d="M780,-818.21C780,-818.21 688,-818.21 688,-818.21 682,-818.21 676,-812.21 676,-806.21 676,-806.21 676,-792.21 676,-792.21 676,-786.21 682,-780.21 688,-780.21 688,-780.21 780,-780.21 780,-780.21 786,-780.21 792,-786.21 792,-792.21 792,-792.21 792,-806.21 792,-806.21 792,-812.21 786,-818.21 780,-818.21"/>
<text text-anchor="middle" x="734" y="-803.01" font-family="Times,serif" font-size="14.00">AWS Lambda</text>
<text text-anchor="middle" x="734" y="-788.01" font-family="Times,serif" font-size="14.00">(Image Processor)</text>
</g>
<!-- API&#45;&gt;Lambda -->
<g id="edge5" class="edge">
<title>API&#45;&gt;Lambda</title>
<path fill="none" stroke="black" d="M501,-1162.06C501,-1085.51 501,-805.54 501,-805.54 501,-805.54 665.81,-805.54 665.81,-805.54"/>
<polygon fill="black" stroke="black" points="665.81,-809.04 675.81,-805.54 665.81,-802.04 665.81,-809.04"/>
<text text-anchor="middle" x="535.73" y="-961.4" font-family="Times,serif" font-size="14.00">invoke</text>
</g>
<!-- Lambda&#45;&gt;Browser -->
<g id="edge10" class="edge">
<title>Lambda&#45;&gt;Browser</title>
<path fill="none" stroke="black" d="M675.63,-792.88C675.63,-792.88 335.55,-792.88 335.55,-792.88"/>
<polygon fill="black" stroke="black" points="335.55,-789.38 325.55,-792.88 335.55,-796.38 335.55,-789.38"/>
<text text-anchor="middle" x="498.37" y="-757.92" font-family="Times,serif" font-size="14.00">return label + confidence (JSON)</text>
</g>
<!-- SM -->
<g id="node7" class="node">
<title>SM</title>
<path fill="#d1c4e9" stroke="black" d="M988.5,-818.21C988.5,-818.21 933.5,-818.21 933.5,-818.21 927.5,-818.21 921.5,-812.21 921.5,-806.21 921.5,-806.21 921.5,-792.21 921.5,-792.21 921.5,-786.21 927.5,-780.21 933.5,-780.21 933.5,-780.21 988.5,-780.21 988.5,-780.21 994.5,-780.21 1000.5,-786.21 1000.5,-792.21 1000.5,-792.21 1000.5,-806.21 1000.5,-806.21 1000.5,-812.21 994.5,-818.21 988.5,-818.21"/>
<text text-anchor="middle" x="961" y="-803.01" font-family="Times,serif" font-size="14.00">SageMaker</text>
<text text-anchor="middle" x="961" y="-788.01" font-family="Times,serif" font-size="14.00">Endpoint</text>
</g>
<!-- Lambda&#45;&gt;SM -->
<g id="edge6" class="edge">
<title>Lambda&#45;&gt;SM</title>
<path fill="none" stroke="black" d="M792.16,-792.88C792.16,-792.88 911.22,-792.88 911.22,-792.88"/>
<polygon fill="black" stroke="black" points="911.22,-796.38 921.22,-792.88 911.22,-789.38 911.22,-796.38"/>
<text text-anchor="middle" x="859.78" y="-771.06" font-family="Times,serif" font-size="14.00">invoke endpoint</text>
</g>
<!-- ResultsBucket -->
<g id="node9" class="node">
<title>ResultsBucket</title>
<path fill="none" stroke="black" d="M997.5,-154.69C997.5,-157.32 981.14,-159.46 961,-159.46 940.86,-159.46 924.5,-157.32 924.5,-154.69 924.5,-154.69 924.5,-111.73 924.5,-111.73 924.5,-109.1 940.86,-106.96 961,-106.96 981.14,-106.96 997.5,-109.1 997.5,-111.73 997.5,-111.73 997.5,-154.69 997.5,-154.69"/>
<path fill="none" stroke="black" d="M997.5,-154.69C997.5,-152.05 981.14,-149.91 961,-149.91 940.86,-149.91 924.5,-152.05 924.5,-154.69"/>
<text text-anchor="middle" x="961" y="-137.01" font-family="Times,serif" font-size="14.00">S3 Bucket</text>
<text text-anchor="middle" x="961" y="-122.01" font-family="Times,serif" font-size="14.00">(Results)</text>
</g>
<!-- Lambda&#45;&gt;ResultsBucket -->
<g id="edge9" class="edge">
<title>Lambda&#45;&gt;ResultsBucket</title>
<path fill="none" stroke="black" d="M734,-780C734,-670.8 734,-133.21 734,-133.21 734,-133.21 914.28,-133.21 914.28,-133.21"/>
<polygon fill="black" stroke="black" points="914.28,-136.71 924.28,-133.21 914.28,-129.71 914.28,-136.71"/>
<text text-anchor="middle" x="803.46" y="-382.37" font-family="Times,serif" font-size="14.00">store PNG + JSON</text>
</g>
<!-- SM&#45;&gt;Lambda -->
<g id="edge8" class="edge">
<title>SM&#45;&gt;Lambda</title>
<path fill="none" stroke="black" d="M921.46,-805.54C921.46,-805.54 802.25,-805.54 802.25,-805.54"/>
<polygon fill="black" stroke="black" points="802.25,-802.04 792.25,-805.54 802.25,-809.04 802.25,-802.04"/>
<text text-anchor="middle" x="863.5" y="-817.37" font-family="Times,serif" font-size="14.00">predictions vector</text>
</g>
<!-- ModelBucket -->
<g id="node8" class="node">
<title>ModelBucket</title>
<path fill="none" stroke="black" d="M1217,-820.69C1217,-823.32 1197.73,-825.46 1174,-825.46 1150.27,-825.46 1131,-823.32 1131,-820.69 1131,-820.69 1131,-777.73 1131,-777.73 1131,-775.1 1150.27,-772.96 1174,-772.96 1197.73,-772.96 1217,-775.1 1217,-777.73 1217,-777.73 1217,-820.69 1217,-820.69"/>
<path fill="none" stroke="black" d="M1217,-820.69C1217,-818.05 1197.73,-815.91 1174,-815.91 1150.27,-815.91 1131,-818.05 1131,-820.69"/>
<text text-anchor="middle" x="1174" y="-803.01" font-family="Times,serif" font-size="14.00">S3 Bucket</text>
<text text-anchor="middle" x="1174" y="-788.01" font-family="Times,serif" font-size="14.00">(ML Model)</text>
</g>
<!-- SM&#45;&gt;ModelBucket -->
<g id="edge7" class="edge">
<title>SM&#45;&gt;ModelBucket</title>
<path fill="none" stroke="black" d="M1000.56,-799.21C1000.56,-799.21 1120.99,-799.21 1120.99,-799.21"/>
<polygon fill="black" stroke="black" points="1120.99,-802.71 1130.99,-799.21 1120.99,-795.71 1120.99,-802.71"/>
<text text-anchor="middle" x="1058.52" y="-811.04" font-family="Times,serif" font-size="14.00">model stored</text>
</g>
</g>
</svg>
